%TF.GenerationSoftware,KiCad,Pcbnew,(6.0.4-0)*%
%TF.CreationDate,2022-10-28T00:48:46+02:00*%
%TF.ProjectId,NE2Pi-Frontpanel,4e453250-692d-4467-926f-6e7470616e65,rev?*%
%TF.SameCoordinates,Original*%
%TF.FileFunction,Profile,NP*%
%FSLAX46Y46*%
G04 Gerber Fmt 4.6, Leading zero omitted, Abs format (unit mm)*
G04 Created by KiCad (PCBNEW (6.0.4-0)) date 2022-10-28 00:48:46*
%MOMM*%
%LPD*%
G01*
G04 APERTURE LIST*
%TA.AperFunction,Profile*%
%ADD10C,0.050000*%
%TD*%
G04 APERTURE END LIST*
D10*
X71600000Y-69200000D02*
G75*
G03*
X71600000Y-69200000I-6500000J0D01*
G01*
X44100000Y-69200000D02*
G75*
G03*
X44100000Y-69200000I-6500000J0D01*
G01*
X53350000Y-69750000D02*
G75*
G03*
X53350000Y-69750000I-2000000J0D01*
G01*
X53350000Y-118300000D02*
G75*
G03*
X53350000Y-118300000I-2000000J0D01*
G01*
X44100000Y-117750000D02*
G75*
G03*
X44100000Y-117750000I-6500000J0D01*
G01*
X71600000Y-117750000D02*
G75*
G03*
X71600000Y-117750000I-6500000J0D01*
G01*
X27550000Y-142120000D02*
X33450000Y-142120000D01*
X33450000Y-142120000D02*
X33450000Y-145420000D01*
X33450000Y-145420000D02*
X27550000Y-145420000D01*
X27550000Y-145420000D02*
X27550000Y-142120000D01*
X70200000Y-142100000D02*
X76100000Y-142100000D01*
X76100000Y-142100000D02*
X76100000Y-145400000D01*
X76100000Y-145400000D02*
X70200000Y-145400000D01*
X70200000Y-145400000D02*
X70200000Y-142100000D01*
X70200000Y-19650000D02*
X76100000Y-19650000D01*
X76100000Y-19650000D02*
X76100000Y-22950000D01*
X76100000Y-22950000D02*
X70200000Y-22950000D01*
X70200000Y-22950000D02*
X70200000Y-19650000D01*
X27550000Y-19670000D02*
X33450000Y-19670000D01*
X33450000Y-19670000D02*
X33450000Y-22970000D01*
X33450000Y-22970000D02*
X27550000Y-22970000D01*
X27550000Y-22970000D02*
X27550000Y-19670000D01*
X20050000Y-18320000D02*
X80650000Y-18320000D01*
X80650000Y-18320000D02*
X80650000Y-146750000D01*
X80650000Y-146750000D02*
X20050000Y-146750000D01*
X20050000Y-146750000D02*
X20050000Y-18320000D01*
M02*
