%TF.GenerationSoftware,KiCad,Pcbnew,(6.0.4-0)*%
%TF.CreationDate,2022-10-28T00:48:46+02:00*%
%TF.ProjectId,NE2Pi-Frontpanel,4e453250-692d-4467-926f-6e7470616e65,rev?*%
%TF.SameCoordinates,Original*%
%TF.FileFunction,Legend,Top*%
%TF.FilePolarity,Positive*%
%FSLAX46Y46*%
G04 Gerber Fmt 4.6, Leading zero omitted, Abs format (unit mm)*
G04 Created by KiCad (PCBNEW (6.0.4-0)) date 2022-10-28 00:48:46*
%MOMM*%
%LPD*%
G01*
G04 APERTURE LIST*
%ADD10C,0.300000*%
G04 APERTURE END LIST*
D10*
X42490476Y-46489523D02*
X42490476Y-42489523D01*
X44776190Y-46489523D01*
X44776190Y-42489523D01*
X46680952Y-44394285D02*
X48014285Y-44394285D01*
X48585714Y-46489523D02*
X46680952Y-46489523D01*
X46680952Y-42489523D01*
X48585714Y-42489523D01*
X50109523Y-42870476D02*
X50300000Y-42680000D01*
X50680952Y-42489523D01*
X51633333Y-42489523D01*
X52014285Y-42680000D01*
X52204761Y-42870476D01*
X52395238Y-43251428D01*
X52395238Y-43632380D01*
X52204761Y-44203809D01*
X49919047Y-46489523D01*
X52395238Y-46489523D01*
X54109523Y-46489523D02*
X54109523Y-42489523D01*
X55633333Y-42489523D01*
X56014285Y-42680000D01*
X56204761Y-42870476D01*
X56395238Y-43251428D01*
X56395238Y-43822857D01*
X56204761Y-44203809D01*
X56014285Y-44394285D01*
X55633333Y-44584761D01*
X54109523Y-44584761D01*
X58109523Y-46489523D02*
X58109523Y-43822857D01*
X58109523Y-42489523D02*
X57919047Y-42680000D01*
X58109523Y-42870476D01*
X58300000Y-42680000D01*
X58109523Y-42489523D01*
X58109523Y-42870476D01*
X43823809Y-52929523D02*
X43823809Y-48929523D01*
X46109523Y-52929523D01*
X46109523Y-48929523D01*
X48585714Y-52929523D02*
X48204761Y-52739047D01*
X48014285Y-52548571D01*
X47823809Y-52167619D01*
X47823809Y-51024761D01*
X48014285Y-50643809D01*
X48204761Y-50453333D01*
X48585714Y-50262857D01*
X49157142Y-50262857D01*
X49538095Y-50453333D01*
X49728571Y-50643809D01*
X49919047Y-51024761D01*
X49919047Y-52167619D01*
X49728571Y-52548571D01*
X49538095Y-52739047D01*
X49157142Y-52929523D01*
X48585714Y-52929523D01*
X53347619Y-52929523D02*
X53347619Y-48929523D01*
X53347619Y-52739047D02*
X52966666Y-52929523D01*
X52204761Y-52929523D01*
X51823809Y-52739047D01*
X51633333Y-52548571D01*
X51442857Y-52167619D01*
X51442857Y-51024761D01*
X51633333Y-50643809D01*
X51823809Y-50453333D01*
X52204761Y-50262857D01*
X52966666Y-50262857D01*
X53347619Y-50453333D01*
X56776190Y-52739047D02*
X56395238Y-52929523D01*
X55633333Y-52929523D01*
X55252380Y-52739047D01*
X55061904Y-52358095D01*
X55061904Y-50834285D01*
X55252380Y-50453333D01*
X55633333Y-50262857D01*
X56395238Y-50262857D01*
X56776190Y-50453333D01*
X56966666Y-50834285D01*
X56966666Y-51215238D01*
X55061904Y-51596190D01*
X42490476Y-95039523D02*
X42490476Y-91039523D01*
X44776190Y-95039523D01*
X44776190Y-91039523D01*
X46680952Y-92944285D02*
X48014285Y-92944285D01*
X48585714Y-95039523D02*
X46680952Y-95039523D01*
X46680952Y-91039523D01*
X48585714Y-91039523D01*
X50109523Y-91420476D02*
X50300000Y-91230000D01*
X50680952Y-91039523D01*
X51633333Y-91039523D01*
X52014285Y-91230000D01*
X52204761Y-91420476D01*
X52395238Y-91801428D01*
X52395238Y-92182380D01*
X52204761Y-92753809D01*
X49919047Y-95039523D01*
X52395238Y-95039523D01*
X54109523Y-95039523D02*
X54109523Y-91039523D01*
X55633333Y-91039523D01*
X56014285Y-91230000D01*
X56204761Y-91420476D01*
X56395238Y-91801428D01*
X56395238Y-92372857D01*
X56204761Y-92753809D01*
X56014285Y-92944285D01*
X55633333Y-93134761D01*
X54109523Y-93134761D01*
X58109523Y-95039523D02*
X58109523Y-92372857D01*
X58109523Y-91039523D02*
X57919047Y-91230000D01*
X58109523Y-91420476D01*
X58300000Y-91230000D01*
X58109523Y-91039523D01*
X58109523Y-91420476D01*
X43823809Y-101479523D02*
X43823809Y-97479523D01*
X46109523Y-101479523D01*
X46109523Y-97479523D01*
X48585714Y-101479523D02*
X48204761Y-101289047D01*
X48014285Y-101098571D01*
X47823809Y-100717619D01*
X47823809Y-99574761D01*
X48014285Y-99193809D01*
X48204761Y-99003333D01*
X48585714Y-98812857D01*
X49157142Y-98812857D01*
X49538095Y-99003333D01*
X49728571Y-99193809D01*
X49919047Y-99574761D01*
X49919047Y-100717619D01*
X49728571Y-101098571D01*
X49538095Y-101289047D01*
X49157142Y-101479523D01*
X48585714Y-101479523D01*
X53347619Y-101479523D02*
X53347619Y-97479523D01*
X53347619Y-101289047D02*
X52966666Y-101479523D01*
X52204761Y-101479523D01*
X51823809Y-101289047D01*
X51633333Y-101098571D01*
X51442857Y-100717619D01*
X51442857Y-99574761D01*
X51633333Y-99193809D01*
X51823809Y-99003333D01*
X52204761Y-98812857D01*
X52966666Y-98812857D01*
X53347619Y-99003333D01*
X56776190Y-101289047D02*
X56395238Y-101479523D01*
X55633333Y-101479523D01*
X55252380Y-101289047D01*
X55061904Y-100908095D01*
X55061904Y-99384285D01*
X55252380Y-99003333D01*
X55633333Y-98812857D01*
X56395238Y-98812857D01*
X56776190Y-99003333D01*
X56966666Y-99384285D01*
X56966666Y-99765238D01*
X55061904Y-100146190D01*
M02*
