%FSLAX45Y45*%
G04 Gerber Fmt 4.5, Leading zero omitted, Abs format (unit mm)*
G04 Created by KiCad (PCBNEW (6.0.4-0)) date 2022-10-28 00:48:45*
%MOMM*%
%LPD*%
G01*
G04 APERTURE LIST*
%TA.AperFunction,Profile*%
%ADD10C,0.050000*%
%TD*%
%ADD11C,0.200000*%
G04 APERTURE END LIST*
D10*
X7160000Y-6920000D02*
G75*
G03*
X7160000Y-6920000I-650000J0D01*
G01*
X4410000Y-6920000D02*
G75*
G03*
X4410000Y-6920000I-650000J0D01*
G01*
X5335000Y-6975000D02*
G75*
G03*
X5335000Y-6975000I-200000J0D01*
G01*
X5335000Y-11830000D02*
G75*
G03*
X5335000Y-11830000I-200000J0D01*
G01*
X4410000Y-11775000D02*
G75*
G03*
X4410000Y-11775000I-650000J0D01*
G01*
X7160000Y-11775000D02*
G75*
G03*
X7160000Y-11775000I-650000J0D01*
G01*
X2755000Y-14212000D02*
X3345000Y-14212000D01*
X3345000Y-14212000D02*
X3345000Y-14542000D01*
X3345000Y-14542000D02*
X2755000Y-14542000D01*
X2755000Y-14542000D02*
X2755000Y-14212000D01*
X7020000Y-14210000D02*
X7610000Y-14210000D01*
X7610000Y-14210000D02*
X7610000Y-14540000D01*
X7610000Y-14540000D02*
X7020000Y-14540000D01*
X7020000Y-14540000D02*
X7020000Y-14210000D01*
X7020000Y-1965000D02*
X7610000Y-1965000D01*
X7610000Y-1965000D02*
X7610000Y-2295000D01*
X7610000Y-2295000D02*
X7020000Y-2295000D01*
X7020000Y-2295000D02*
X7020000Y-1965000D01*
X2755000Y-1967000D02*
X3345000Y-1967000D01*
X3345000Y-1967000D02*
X3345000Y-2297000D01*
X3345000Y-2297000D02*
X2755000Y-2297000D01*
X2755000Y-2297000D02*
X2755000Y-1967000D01*
X2005000Y-1832000D02*
X8065000Y-1832000D01*
X8065000Y-1832000D02*
X8065000Y-14675000D01*
X8065000Y-14675000D02*
X2005000Y-14675000D01*
X2005000Y-14675000D02*
X2005000Y-1832000D01*
D11*
X2260119Y-14987976D02*
X2260119Y-14787976D01*
X2307738Y-14787976D01*
X2336310Y-14797500D01*
X2355357Y-14816548D01*
X2364881Y-14835595D01*
X2374405Y-14873690D01*
X2374405Y-14902262D01*
X2364881Y-14940357D01*
X2355357Y-14959405D01*
X2336310Y-14978452D01*
X2307738Y-14987976D01*
X2260119Y-14987976D01*
X2460119Y-14987976D02*
X2460119Y-14854643D01*
X2460119Y-14892738D02*
X2469643Y-14873690D01*
X2479167Y-14864167D01*
X2498214Y-14854643D01*
X2517262Y-14854643D01*
X2583929Y-14987976D02*
X2583929Y-14854643D01*
X2583929Y-14787976D02*
X2574405Y-14797500D01*
X2583929Y-14807024D01*
X2593452Y-14797500D01*
X2583929Y-14787976D01*
X2583929Y-14807024D01*
X2707738Y-14987976D02*
X2688690Y-14978452D01*
X2679167Y-14959405D01*
X2679167Y-14787976D01*
X2812500Y-14987976D02*
X2793452Y-14978452D01*
X2783929Y-14959405D01*
X2783929Y-14787976D01*
X3041071Y-14987976D02*
X3041071Y-14787976D01*
X3107738Y-14930833D01*
X3174405Y-14787976D01*
X3174405Y-14987976D01*
X3355357Y-14987976D02*
X3355357Y-14883214D01*
X3345833Y-14864167D01*
X3326786Y-14854643D01*
X3288690Y-14854643D01*
X3269643Y-14864167D01*
X3355357Y-14978452D02*
X3336309Y-14987976D01*
X3288690Y-14987976D01*
X3269643Y-14978452D01*
X3260119Y-14959405D01*
X3260119Y-14940357D01*
X3269643Y-14921309D01*
X3288690Y-14911786D01*
X3336309Y-14911786D01*
X3355357Y-14902262D01*
X3450595Y-14854643D02*
X3450595Y-15054643D01*
X3450595Y-14864167D02*
X3469643Y-14854643D01*
X3507738Y-14854643D01*
X3526786Y-14864167D01*
X3536309Y-14873690D01*
X3545833Y-14892738D01*
X3545833Y-14949881D01*
X3536309Y-14968928D01*
X3526786Y-14978452D01*
X3507738Y-14987976D01*
X3469643Y-14987976D01*
X3450595Y-14978452D01*
X3631548Y-14968928D02*
X3641071Y-14978452D01*
X3631548Y-14987976D01*
X3622024Y-14978452D01*
X3631548Y-14968928D01*
X3631548Y-14987976D01*
X3631548Y-14864167D02*
X3641071Y-14873690D01*
X3631548Y-14883214D01*
X3622024Y-14873690D01*
X3631548Y-14864167D01*
X3631548Y-14883214D01*
M02*
